<svg width="33" height="32" viewBox="0 0 33 32" fill="none" xmlns="http://www.w3.org/2000/svg">
<g clip-path="url(#clip0_274_1502)">
<path d="M16.5 31.98C7.66399 31.98 0.519989 24.836 0.519989 16C0.519989 7.16402 7.66399 0.0200195 16.5 0.0200195C25.336 0.0200195 32.48 7.16402 32.48 16C32.48 24.836 25.336 31.98 16.5 31.98ZM16.5 1.90002C8.69799 1.90002 2.39999 8.19802 2.39999 16C2.39999 23.802 8.69799 30.1 16.5 30.1C24.302 30.1 30.6 23.802 30.6 16C30.6 8.19802 24.302 1.90002 16.5 1.90002Z" fill="#EFEFF1"/>
<path d="M11 15.1135H22.5056V16.3919H11V15.1135Z" fill="#EFEFF1"/>
<path d="M16.1136 10H17.392V21.5056H16.1136V10Z" fill="#EFEFF1"/>
</g>
<defs>
<clipPath id="clip0_274_1502">
<rect width="31.96" height="31.96" fill="white" transform="translate(0.519989 0.0200195)"/>
</clipPath>
</defs>
</svg>
